<?xml version="1.0" encoding="UTF-8"?>
<!DOCTYPE svg PUBLIC "-//W3C//DTD SVG 1.1//EN" "http://www.w3.org/Graphics/SVG/1.1/DTD/svg11.dtd">
<!-- Creator: CorelDRAW X7 -->
<svg xmlns="http://www.w3.org/2000/svg" xml:space="preserve" width="19.7382mm" height="22.966mm" version="1.1" style="shape-rendering:geometricPrecision; text-rendering:geometricPrecision; image-rendering:optimizeQuality; fill-rule:evenodd; clip-rule:evenodd"
viewBox="0 0 1814 2111"
 xmlns:xlink="http://www.w3.org/1999/xlink">
 <defs>
  <style type="text/css">
   <![CDATA[
    .fil1 {fill:#FEFEFE}
    .fil0 {fill:#F2784B;fill-rule:nonzero}
   ]]>
  </style>
 </defs>
 <g id="Слой_x0020_1">
  <metadata id="CorelCorpID_0Corel-Layer"/>
  <polygon class="fil0" points="1814,2111 934,1804 0,2111 0,0 1814,0 "/>
  <path class="fil1" d="M1079 1361c-12,-14 -32,-29 -47,-43 -13,-8 -26,-20 -40,-30 -10,-8 -33,-23 -40,-31 -6,-2 -15,-8 -19,-14 -8,-1 -27,-16 -34,-20 -133,-82 -73,67 -169,51 -31,-5 -52,-25 -68,-40 -53,-52 -221,-243 -214,-306 2,-9 7,-20 12,-28 1,-2 2,-2 3,-3 0,-1 1,-1 1,-1 37,-35 42,-28 79,-53 26,-17 -10,-89 -19,-117 -7,-14 -14,-34 -20,-49 -5,-11 -20,-38 -22,-48 -4,-5 -9,-15 -12,-20 -4,-7 -8,-13 -12,-20 -6,-8 -22,-30 -33,-30 -12,0 -39,12 -47,17 -36,22 -71,64 -93,100 -15,26 -30,56 -29,97 2,69 88,227 132,296 7,11 13,20 20,31 62,95 149,171 228,251l57 48c25,23 92,71 123,88 56,31 112,21 168,-9 6,-3 11,-5 16,-9 6,-3 11,-7 16,-11 19,-13 35,-37 49,-58 8,-12 14,-19 14,-39zm-427 -387l0 -32c0,-22 3,-42 8,-58 6,-17 14,-32 26,-47 12,-15 33,-33 62,-56 21,-17 35,-29 42,-36 7,-7 12,-14 16,-21 3,-7 5,-14 5,-22 0,-27 -16,-40 -48,-40 -32,0 -63,12 -91,35l0 -96c22,-11 42,-19 61,-23 19,-4 39,-6 59,-6 43,0 76,10 100,30 24,21 35,50 35,87 0,28 -6,53 -18,73 -12,19 -35,40 -69,62 -25,16 -42,28 -51,36 -8,8 -12,14 -13,20l155 0 0 94 -279 0zm590 -396l0 249 56 0 0 79 -57 0 0 68 -103 0 0 -68 -168 0 0 -81c30,-34 59,-74 88,-118 29,-45 53,-88 71,-129l113 0zm-105 249l0 -116c-17,38 -40,76 -69,116l69 0zm-186 -603c316,0 571,256 571,571 0,243 -151,450 -363,533l-113 -87c207,-43 361,-227 361,-446 0,-252 -204,-456 -456,-456 -176,0 -328,99 -405,245l-70 -106c102,-153 277,-254 475,-254z"/>
 </g>
</svg>
