<?xml version="1.0" encoding="UTF-8"?>
<!DOCTYPE svg PUBLIC "-//W3C//DTD SVG 1.1//EN" "http://www.w3.org/Graphics/SVG/1.1/DTD/svg11.dtd">
<!-- Creator: CorelDRAW X7 -->
<svg xmlns="http://www.w3.org/2000/svg" xml:space="preserve" width="5.0181mm" height="5.0181mm" version="1.1" style="shape-rendering:geometricPrecision; text-rendering:geometricPrecision; image-rendering:optimizeQuality; fill-rule:evenodd; clip-rule:evenodd"
viewBox="0 0 73 73"
 xmlns:xlink="http://www.w3.org/1999/xlink">
 <defs>
  <style type="text/css">
   <![CDATA[
    .fil0 {fill:#F2784B;fill-rule:nonzero}
   ]]>
  </style>
 </defs>
 <g id="Слой_x0020_1">
  <metadata id="CorelCorpID_0Corel-Layer"/>
  <path class="fil0" d="M67 67l0 0c1,-1 1,-2 1,-4 0,-1 0,-2 -1,-3l-20 -20c-1,1 -2,3 -3,4 -1,1 -3,2 -4,3l20 20c1,1 2,1 3,1 2,0 3,0 4,-1zm-49 -33c1,1 1,3 0,4 -1,1 -3,1 -4,0 -3,-3 -5,-8 -5,-12 0,-5 1,-9 5,-12 1,-2 3,-2 4,0 1,1 1,2 0,4 -2,2 -3,5 -3,8 0,3 1,6 3,8zm-10 -26c5,-5 11,-8 18,-8 6,0 13,3 18,8 5,5 7,11 7,18 0,3 0,7 -2,10l21 21c2,2 3,4 3,6 0,3 -1,5 -3,7l0 0c-2,2 -4,3 -7,3 -2,0 -4,-1 -6,-3l-21 -21c-3,2 -7,2 -10,2 -7,0 -13,-2 -18,-7 -5,-5 -8,-12 -8,-18 0,-7 3,-13 8,-18zm4 4c-4,3 -6,9 -6,14 0,5 2,10 6,14 3,4 9,6 14,6 5,0 10,-2 14,-6 4,-4 6,-9 6,-14 0,-5 -2,-11 -6,-14 -4,-4 -9,-6 -14,-6 -5,0 -11,2 -14,6z"/>
 </g>
</svg>
