<svg xmlns="http://www.w3.org/2000/svg" width="18.966" height="18.966" viewBox="0 0 73 73" shape-rendering="geometricPrecision" text-rendering="geometricPrecision" image-rendering="optimizeQuality" fill-rule="evenodd" clip-rule="evenodd"><path d="M67 67c1-1 1-2 1-4 0-1 0-2-1-3L47 40c-1 1-2 3-3 4s-3 2-4 3l20 20c1 1 2 1 3 1 2 0 3 0 4-1zM18 34c1 1 1 3 0 4s-3 1-4 0c-3-3-5-8-5-12 0-5 1-9 5-12 1-2 3-2 4 0 1 1 1 2 0 4-2 2-3 5-3 8s1 6 3 8zM8 8c5-5 11-8 18-8 6 0 13 3 18 8s7 11 7 18c0 3 0 7-2 10l21 21c2 2 3 4 3 6 0 3-1 5-3 7s-4 3-7 3c-2 0-4-1-6-3L36 49c-3 2-7 2-10 2-7 0-13-2-18-7S0 32 0 26c0-7 3-13 8-18zm4 4c-4 3-6 9-6 14s2 10 6 14c3 4 9 6 14 6s10-2 14-6 6-9 6-14-2-11-6-14c-4-4-9-6-14-6s-11 2-14 6z" fill="#f2784b" fill-rule="nonzero" id="Слой_x0020_1"/></svg>